<svg width="16" height="16" viewBox="0 0 16 16" fill="none" xmlns="http://www.w3.org/2000/svg">
<path fill-rule="evenodd" clip-rule="evenodd" d="M3.06675 2.16667C2.56969 2.16667 2.16675 2.56962 2.16675 3.06667V9.6C2.16675 10.0971 2.56969 10.5 3.06675 10.5H5.50008V12.9333C5.50008 13.4304 5.90302 13.8333 6.40008 13.8333H12.9334C13.4305 13.8333 13.8334 13.4304 13.8334 12.9333V6.40001C13.8334 5.90295 13.4305 5.50001 12.9334 5.50001H10.5001V3.06667C10.5001 2.56962 10.0971 2.16667 9.60008 2.16667H3.06675ZM9.50008 5.50001V3.16667H3.16675V9.5H5.50008V6.4C5.50008 5.90295 5.90303 5.50001 6.40008 5.50001H9.50008ZM6.50008 10V12.8333H12.8334V6.5H10.0001H6.50008V10Z" fill="#B03BA6"/>
</svg>
