<svg width="16" height="16" viewBox="0 0 16 16" fill="none" xmlns="http://www.w3.org/2000/svg">
<path fill-rule="evenodd" clip-rule="evenodd" d="M3.04494 4.33375C3.22967 4.1285 3.21303 3.81235 3.00778 3.62762C2.80252 3.4429 2.48638 3.45953 2.30165 3.66479L2.29498 3.6722C2.11025 3.87745 2.12689 4.1936 2.33215 4.37833C2.5374 4.56306 2.85355 4.54642 3.03828 4.34116L3.04494 4.33375ZM5.33329 3.5C5.05715 3.5 4.83329 3.72386 4.83329 4C4.83329 4.27614 5.05715 4.5 5.33329 4.5L13.3333 4.5C13.6094 4.5 13.8333 4.27614 13.8333 4C13.8333 3.72386 13.6094 3.5 13.3333 3.5L5.33329 3.5ZM3.00778 7.62762C3.21303 7.81235 3.22967 8.1285 3.04494 8.33375L3.03828 8.34116C2.85355 8.54642 2.5374 8.56306 2.33215 8.37833C2.12689 8.1936 2.11025 7.87745 2.29498 7.6722L2.30165 7.66479C2.48638 7.45953 2.80252 7.4429 3.00778 7.62762ZM3.04494 12.3338C3.22967 12.1285 3.21303 11.8124 3.00778 11.6276C2.80252 11.4429 2.48638 11.4595 2.30165 11.6648L2.29498 11.6722C2.11025 11.8775 2.12689 12.1936 2.33215 12.3783C2.5374 12.5631 2.85355 12.5464 3.03828 12.3412L3.04494 12.3338ZM4.83329 8C4.83329 7.72386 5.05715 7.5 5.33329 7.5L13.3333 7.5C13.6094 7.5 13.8333 7.72386 13.8333 8C13.8333 8.27614 13.6094 8.5 13.3333 8.5L5.33329 8.5C5.05715 8.5 4.83329 8.27614 4.83329 8ZM5.33329 11.5C5.05715 11.5 4.83329 11.7239 4.83329 12C4.83329 12.2761 5.05715 12.5 5.33329 12.5L13.3333 12.5C13.6094 12.5 13.8333 12.2761 13.8333 12C13.8333 11.7239 13.6094 11.5 13.3333 11.5L5.33329 11.5Z" fill="#892E82"/>
</svg>
