<svg width="24" height="24" viewBox="0 0 24 24" fill="none" xmlns="http://www.w3.org/2000/svg">
<path fill-rule="evenodd" clip-rule="evenodd" d="M4.29795 11.2248C4.68643 7.31211 7.98862 4.25581 12.0039 4.25581C14.8261 4.25581 17.2968 5.76556 18.6506 8.02327H16.1899C15.8431 8.02327 15.562 8.3044 15.562 8.65118C15.562 8.99796 15.8431 9.27909 16.1899 9.27909H19.6664C19.6752 9.27927 19.6841 9.27928 19.6929 9.27909H19.8736C20.4978 9.27909 21.0039 8.77307 21.0039 8.14886V4.46513C21.0039 4.11835 20.7227 3.83723 20.376 3.83723C20.0292 3.83723 19.748 4.11835 19.748 4.46513V7.4119C18.1803 4.77126 15.2995 3 12.0039 3C7.33668 3 3.4999 6.55209 3.04828 11.1008C3.01402 11.4458 3.266 11.7534 3.61108 11.7876C3.95617 11.8219 4.26369 11.5699 4.29795 11.2248ZM12.0452 19.7442C16.0605 19.7442 19.3627 16.6879 19.7512 12.7752C19.7854 12.4301 20.0929 12.1781 20.438 12.2124C20.7831 12.2466 21.0351 12.5542 21.0008 12.8992C20.5492 17.4479 16.7124 21 12.0452 21C8.74962 21 5.86882 19.2287 4.30103 16.5881V19.5349C4.30103 19.8816 4.01991 20.1628 3.67313 20.1628C3.32634 20.1628 3.04522 19.8816 3.04522 19.5349V15.8511C3.04522 15.2269 3.55124 14.7209 4.17545 14.7209H4.35619C4.36504 14.7207 4.37388 14.7207 4.38271 14.7209H7.85917C8.20596 14.7209 8.48708 15.002 8.48708 15.3488C8.48708 15.6956 8.20596 15.9767 7.85917 15.9767H5.39856C6.75231 18.2344 9.22302 19.7442 12.0452 19.7442Z" fill="#47496B"/>
</svg>
